grf
version=1
nRows=7
nColumns=37
inDegrees=no
endheader
time	ground_force_1_vx	ground_force_1_vy	ground_force_1_vz	ground_force_1_px	ground_force_1_py	ground_force_1_pz	ground_moment_1_mx	ground_moment_1_my	ground_moment_1_mz	ground_force_2_vx	ground_force_2_vy	ground_force_2_vz	ground_force_2_px	ground_force_2_py	ground_force_2_pz	ground_moment_2_mx	ground_moment_2_my	ground_moment_2_mz	ground_force_3_vx	ground_force_3_vy	ground_force_3_vz	ground_force_3_px	ground_force_3_py	ground_force_3_pz	ground_moment_3_mx	ground_moment_3_my	ground_moment_3_mz	ground_force_4_vx	ground_force_4_vy	ground_force_4_vz	ground_force_4_px	ground_force_4_py	ground_force_4_pz	ground_moment_4_mx	ground_moment_4_my	ground_moment_4_mz
      0.00000000	      0.00000000	     -0.00000000	      0.00000000	      0.00000000	      0.00000000	      0.00000000	      0.00000000	      0.00000000	      0.00000000	      3.63558841	     38.63373184	   -373.55801392	   -369.34857728	  -1074.58788437	      0.00000000	      0.00000000	      0.00000000	   1346.02664267	     -2.64791688	    -39.20147682	   -341.01559448	   -338.48962201	   -705.65509397	      0.00000000	      0.00000000	      0.00000000	  -1462.19754997	      0.00000000	     -0.00000000	      0.00000000	      0.00000000	      0.00000000	      0.00000000	      0.00000000	      0.00000000	      0.00000000
      0.01000000	      0.00000000	     -0.00000000	      0.00000000	      0.00000000	      0.00000000	      0.00000000	      0.00000000	      0.00000000	      0.00000000	      3.82268167	     38.73165131	   -372.69335938	   -369.41105445	  -1073.98630640	      0.00000000	      0.00000000	      0.00000000	   1422.43123414	     -2.62128527	    -39.02489830	   -339.61947632	   -338.63495548	   -704.87757774	      0.00000000	      0.00000000	     -0.00000000	  -1508.46700017	      0.00000000	     -0.00000000	      0.00000000	      0.00000000	      0.00000000	      0.00000000	      0.00000000	      0.00000000	      0.00000000
      0.02000000	      0.00000000	     -0.00000000	      0.00000000	      0.00000000	      0.00000000	      0.00000000	      0.00000000	      0.00000000	      0.00000000	      3.14895773	     38.49105072	   -372.39431763	   -368.58515677	  -1073.49368869	      0.00000000	      0.00000000	      0.00000000	   1180.04724746	     -2.84782588	    -39.45336889	   -337.78634644	   -338.39264256	   -704.96837191	      0.00000000	      0.00000000	     -0.00000000	  -1371.75028093	      0.00000000	     -0.00000000	      0.00000000	      0.00000000	      0.00000000	      0.00000000	      0.00000000	      0.00000000	      0.00000000
      0.03000000	      0.00000000	     -0.00000000	      0.00000000	      0.00000000	      0.00000000	      0.00000000	      0.00000000	      0.00000000	      0.00000000	      2.79199648	     38.41863632	   -370.89132690	   -368.51100275	  -1073.47223605	      0.00000000	      0.00000000	      0.00000000	   1202.09963746	     -2.47069249	    -39.22798517	   -337.03533936	   -337.60552915	   -704.98874334	      0.00000000	      0.00000000	     -0.00000000	  -1423.68243248	      0.00000000	     -0.00000000	      0.00000000	      0.00000000	      0.00000000	      0.00000000	      0.00000000	      0.00000000	      0.00000000
      0.04000000	      0.00000000	     -0.00000000	      0.00000000	      0.00000000	      0.00000000	      0.00000000	      0.00000000	      0.00000000	      0.00000000	      2.94685602	     38.61976242	   -370.60147095	   -368.29377491	  -1073.14277344	      0.00000000	      0.00000000	      0.00000000	   1247.32316752	     -2.39519465	    -39.52887323	   -337.77191162	   -338.22501001	   -705.87306189	      0.00000000	      0.00000000	      0.00000000	  -1295.50212949	      0.00000000	     -0.00000000	      0.00000000	      0.00000000	      0.00000000	      0.00000000	      0.00000000	      0.00000000	      0.00000000
      0.05000000	      0.00000000	     -0.00000000	      0.00000000	      0.00000000	      0.00000000	      0.00000000	      0.00000000	      0.00000000	      0.00000000	      3.40309596	     39.12578583	   -370.58947754	   -368.27057162	  -1071.83871603	      0.00000000	      0.00000000	      0.00000000	   1396.19634677	     -2.63517702	    -39.62760139	   -338.66601562	   -338.23298762	   -704.29888303	      0.00000000	      0.00000000	     -0.00000000	  -1314.03464249	      0.00000000	     -0.00000000	      0.00000000	      0.00000000	      0.00000000	      0.00000000	      0.00000000	      0.00000000	      0.00000000
      0.06000000	      0.00000000	     -0.00000000	      0.00000000	      0.00000000	      0.00000000	      0.00000000	      0.00000000	      0.00000000	      0.00000000	      3.86009693	     38.53037643	   -372.40643311	   -367.77265485	  -1073.36732204	      0.00000000	      0.00000000	      0.00000000	   1540.91218807	     -2.16809807	    -39.29019909	   -339.11929321	   -337.25263892	   -703.82476202	      0.00000000	      0.00000000	     -0.00000000	  -1394.34854567	      0.00000000	     -0.00000000	      0.00000000	      0.00000000	      0.00000000	      0.00000000	      0.00000000	      0.00000000	      0.00000000
